<svg width="1042" height="1181" viewBox="0 0 1042 1181" fill="none" xmlns="http://www.w3.org/2000/svg">
<path d="M237 759.446L241.5 679.946L312 673.446L273.5 773.446L237 759.446Z" fill="#FB2C36"/>
<path d="M463 1066.45C325.8 1048.05 274.5 934.446 266 879.946C209.2 944.746 253.667 1018.28 283 1046.95C224.5 1060.45 210 1086.95 209 1111.95C208.2 1131.95 277.333 1140.28 312 1141.95C337.5 1156.95 447 1123.45 455 1118.95C461.4 1115.35 463 1082.45 463 1066.45Z" fill="#FB2C36"/>
<path d="M237 759.446L241.5 679.946L312 673.446L273.5 773.446L237 759.446Z" stroke="#FB2C36"/>
<path d="M463 1066.45C325.8 1048.05 274.5 934.446 266 879.946C209.2 944.746 253.667 1018.28 283 1046.95C224.5 1060.45 210 1086.95 209 1111.95C208.2 1131.95 277.333 1140.28 312 1141.95C337.5 1156.95 447 1123.45 455 1118.95C461.4 1115.35 463 1082.45 463 1066.45Z" stroke="#FB2C36"/>
<g opacity="0.4">
<path d="M237 760.446L241.5 680.946L312 674.446L273.5 774.446L237 760.446Z" fill="#9F0712"/>
<path d="M463 1067.45C325.8 1049.05 274.5 935.446 266 880.946C209.2 945.746 253.667 1019.28 283 1047.95C224.5 1061.45 210 1087.95 209 1112.95C208.2 1132.95 277.333 1141.28 312 1142.95C337.5 1157.95 447 1124.45 455 1119.95C461.4 1116.35 463 1083.45 463 1067.45Z" fill="#9F0712"/>
<path d="M237 760.446L241.5 680.946L312 674.446L273.5 774.446L237 760.446Z" stroke="#9F0712"/>
<path d="M463 1067.45C325.8 1049.05 274.5 935.446 266 880.946C209.2 945.746 253.667 1019.28 283 1047.95C224.5 1061.45 210 1087.95 209 1112.95C208.2 1132.95 277.333 1141.28 312 1142.95C337.5 1157.95 447 1124.45 455 1119.95C461.4 1116.35 463 1083.45 463 1067.45Z" stroke="#9F0712"/>
</g>
<rect x="44.4532" y="518.863" width="205.793" height="373.312" rx="49" transform="rotate(5 44.4532 518.863)" fill="white" stroke="black" stroke-width="22"/>
<rect x="114.319" y="648.196" width="42.187" height="42.001" rx="9" transform="rotate(5 114.319 648.196)" fill="#FB2C36" stroke="#FFA2A2" stroke-width="2"/>
<rect x="166.227" y="652.987" width="42.187" height="42.001" rx="9" transform="rotate(5 166.227 652.987)" fill="#FB2C36" stroke="#FFA2A2" stroke-width="2"/>
<rect x="108.368" y="727.229" width="42.187" height="42.7449" rx="9" transform="rotate(5 108.368 727.229)" fill="#FF6900" stroke="#FFB86A" stroke-width="2"/>
<rect x="56.7335" y="722.709" width="42.187" height="42.7449" rx="9" transform="rotate(5 56.7335 722.709)" fill="#FF6900" stroke="#FFB86A" stroke-width="2"/>
<rect x="103.481" y="785.02" width="42.187" height="42.7449" rx="9" transform="rotate(5 103.481 785.02)" fill="#00C950" stroke="#7BF1A8" stroke-width="2"/>
<rect x="64.6398" y="631.887" width="42.187" height="59.4181" rx="9" transform="rotate(5 64.6398 631.887)" fill="#FDC700" stroke="#FFDF20" stroke-width="2"/>
<rect x="68.6364" y="575.185" width="43.1476" height="46.1868" rx="9" transform="rotate(5 68.6364 575.185)" fill="#F6339A" stroke="#FDA5D5" stroke-width="2"/>
<rect x="160.823" y="714.751" width="43.1476" height="101.586" rx="9" transform="rotate(5 160.823 714.751)" fill="#F6339A" stroke="#FDA5D5" stroke-width="2"/>
<rect x="120.311" y="579.706" width="43.1476" height="61.1018" rx="9" transform="rotate(5 120.311 579.706)" fill="#2B7FFF" stroke="#8EC5FF" stroke-width="2"/>
<rect x="171.985" y="584.227" width="43.1476" height="61.1018" rx="9" transform="rotate(5 171.985 584.227)" fill="#2B7FFF" stroke="#8EC5FF" stroke-width="2"/>
<g opacity="0.2">
<path d="M20.0398 849.956C18.9789 848.722 18.482 847.701 18.5 846.946L20.0398 849.956C28.8135 860.159 76.1658 884.954 190 894.946L40.5005 889.946L20.0398 849.956Z" fill="black"/>
<path d="M18.5 846.946C18.3333 853.946 62.4 883.746 190 894.946L40.5005 889.946L18.5 846.946Z" stroke="black"/>
</g>
<circle cx="127.057" cy="555.703" r="5.5" transform="rotate(5 127.057 555.703)" fill="black"/>
<rect x="138.992" y="551.226" width="30" height="11" rx="5.5" transform="rotate(5 138.992 551.226)" fill="black"/>
<path d="M593.5 1083.45C547.293 1064.27 521.019 1041.24 508.675 1016.82C514.828 1036.21 523.969 1053.07 533 1065.45C467 1079.45 385.167 1047.95 352.5 1030.45C260.5 942.446 274 871.446 268 828.446C263.2 794.046 312 669.113 337 610.946C288.6 614.146 240.833 593.946 223 583.446C212.667 577.446 192 555.346 192 514.946C192 474.546 212.667 449.446 223 441.946C144.6 437.146 97.6667 416.613 84 406.946C65 393.78 34.1 343.546 62.5 247.946C90.9 152.346 181.333 119.446 223 114.946C236.833 92.6128 282.1 42.0462 352.5 18.4462C422.9 -5.15379 495.5 28.2795 523 47.9462C581 25.9462 626.833 29.7795 642.5 34.4461C705 26.9461 803.5 128.446 813.5 320.446C821.5 474.046 742.167 547.779 701.5 565.446C699.9 640.646 762.167 721.113 793.5 751.946C855.9 750.346 907.167 702.946 925 679.446C1000.2 569.846 1027 611.446 1031 645.946C1010.6 957.946 839.5 1043.95 756.5 1047.95C792.5 1118.35 754.5 1147.95 731 1153.95L666.5 1169.45L513.5 1153.95C493.1 1095.95 558.333 1082.78 593.5 1083.45Z" fill="#FB2C36" stroke="#FB2C36"/>
<path d="M442.5 439.446L367.5 452.946C374.833 464.113 393.4 487.846 409 493.446C424.6 499.046 437.833 459.78 442.5 439.446Z" fill="white"/>
<path d="M183 439.446L120 427.446C120 444.613 126.2 479.146 151 479.946C175.8 480.746 182.667 453.279 183 439.446Z" fill="white"/>
<path d="M442.5 439.446L367.5 452.946C374.833 464.113 393.4 487.846 409 493.446C424.6 499.046 437.833 459.78 442.5 439.446Z" stroke="white"/>
<path d="M183 439.446L120 427.446C120 444.613 126.2 479.146 151 479.946C175.8 480.746 182.667 453.279 183 439.446Z" stroke="white"/>
<path d="M523 581.446L336.5 615.946C149.7 996.346 395.333 1077.11 541.5 1069.95C539.667 1006.28 536 879.346 536 880.946C536 882.546 527.333 800.613 523 759.446C510.6 752.646 517.833 637.946 523 581.446Z" fill="#FFD230" stroke="#FFD230"/>
<path d="M584 843.446C523.333 891.946 438.4 1007.25 584 1080.45V843.446Z" fill="#FB2C36"/>
<path d="M450 714.446C502.4 724.446 524.5 703.613 529 691.946C576.667 679.446 660.9 674.446 616.5 754.446C572.1 834.446 502 818.779 472.5 800.946L450 818.446C406 839.246 404 802.113 408.5 780.946L384.5 763.446C384.5 742.946 397.6 704.446 450 714.446Z" fill="#FB2C36"/>
<path d="M584 843.446C523.333 891.946 438.4 1007.25 584 1080.45V843.446Z" stroke="#FB2C36"/>
<path d="M450 714.446C502.4 724.446 524.5 703.613 529 691.946C576.667 679.446 660.9 674.446 616.5 754.446C572.1 834.446 502 818.779 472.5 800.946L450 818.446C406 839.246 404 802.113 408.5 780.946L384.5 763.446C384.5 742.946 397.6 704.446 450 714.446Z" stroke="#FB2C36"/>
<path opacity="0.7" d="M729.5 1026.45C749.5 1006.85 783.167 947.613 797.5 920.446C807.9 974.846 777.833 1021.11 761.5 1037.45C757.333 1037.45 753 1050.25 769 1101.45C785 1152.65 694 1162.78 646.5 1161.45C725.7 1140.25 737.833 1112.61 734 1101.45C734.333 1089.28 733.2 1062.55 726 1052.95C718.8 1043.35 725.333 1031.28 729.5 1026.45Z" fill="#9F0712" stroke="#9F0712"/>
<path opacity="0.7" d="M612.5 751.446C572.1 794.246 509 795.613 482.5 790.946V798.446C548.5 828.446 596.667 779.613 612.5 751.446Z" fill="#9F0712" stroke="#9F0712"/>
<path opacity="0.5" d="M444.5 735.946C420.5 731.946 402.5 747.28 396.5 755.446C393.3 735.846 415.5 722.28 427 717.946L498.5 711.446L547 679.446C536.2 718.646 515.288 733.549 506.5 735.946C495.5 738.946 468.5 739.946 444.5 735.946Z" fill="#FFA2A2" stroke="#FFA2A2"/>
<path opacity="0.5" d="M600 841.446C565 877.946 511.2 944.046 542 1052.45C502.667 1011.45 459.2 911.846 600 841.446Z" fill="#FFA2A2" stroke="#FFA2A2"/>
<path opacity="0.7" d="M1021.5 655.446C986.787 858.946 863.667 923.78 807.5 929.446L767.5 1046.45C991.1 985.246 1031.5 764.946 1021.5 655.446Z" fill="#9F0712" stroke="#9F0712"/>
<path opacity="0.7" d="M964.5 896.946C919.3 951.746 835.333 985.113 799 994.946L770 1043.95C804.833 1039.45 892.5 1003.75 964.5 896.946Z" fill="#FFD230" stroke="#FFD230"/>
<path opacity="0.7" d="M964.5 896.946C919.3 951.746 835.333 985.113 799 994.946L770 1043.95C804.833 1039.45 892.5 1003.75 964.5 896.946Z" fill="#FF8904" stroke="#FF8904"/>
<path opacity="0.5" d="M968 667.446C908.8 764.646 843.333 770.279 818 760.946C920 719.946 947 648.446 975.5 620.446C998.3 598.046 1006.67 611.113 1008 620.446C992.4 632.846 974.833 656.946 968 667.446Z" fill="#FFA2A2" stroke="#FFA2A2"/>
<path opacity="0.5" d="M772.5 174.946C688.1 9.34612 546.333 55.2795 486 98.9461C466.8 109.346 470.333 95.2795 474.5 86.9461C651.7 -40.6539 753.333 89.1128 782 169.946L772.5 174.946Z" fill="#FFA2A2" stroke="#FFA2A2"/>
<path opacity="0.5" d="M489.5 59.4462C363.1 13.0462 284.5 71.4462 261 106.446H235.5C321.5 -14.7539 455.333 14.9462 511.5 44.9462L489.5 59.4462Z" fill="#FFA2A2" stroke="#FFA2A2"/>
<path opacity="0.5" d="M380 492.946C344.8 491.746 285 500.113 259.5 504.446L285.5 449.946L363.5 454.446L380 492.946Z" fill="black" stroke="black"/>
<path opacity="0.7" d="M349 614.446L338.5 652.946C339.167 660.946 349.1 676.846 377.5 674.446C405.9 672.046 478.5 649.78 515 637.946C515 637.946 519.084 636.418 519.126 636.404L524 576.862L349 614.446Z" fill="#FF8904" stroke="#FF8904"/>
<g opacity="0.7">
<path d="M524 576.862L520 635.946C549.061 626.264 612.627 606.748 631 607.946C654 609.446 683.5 619.446 708.5 647.946L693 562.446C741.167 551.446 843 451.946 791 227.446C796.167 338.613 759.7 562.046 572.5 566.446L524 576.862Z" fill="#9F0712"/>
<path d="M524 576.862L520 635.946C549.061 626.264 612.627 606.748 631 607.946C654 609.446 683.5 619.446 708.5 647.946L693 562.446C741.167 551.446 843 451.946 791 227.446C796.167 338.613 759.7 562.046 572.5 566.446L524 576.862Z" stroke="#9F0712"/>
</g>
<path opacity="0.5" d="M448 991.446C357.6 994.246 301 928.279 284 894.946C303.6 1051.75 452.833 1070.95 525 1060.95L490.5 987.446C470.1 991.046 453.667 991.613 448 991.446Z" fill="#FF8904" stroke="#FF8904"/>
<path opacity="0.5" d="M259 139.446C87 144.246 68 306.78 80 387.446H66C14.4 135.046 200.5 102.613 300 117.946C314.4 136.746 304 140.113 297 139.446H259Z" fill="#FFA2A2" stroke="#FFA2A2"/>
<path d="M313 1046.95C233.4 1005.75 245.167 932.78 261 901.446L256 857.446C246.167 868.946 226.5 903.346 226.5 948.946C226.5 994.546 251.5 1029.28 264 1040.95C242 1046.9 222.167 1061.43 215 1067.95C208.833 1072.11 196.7 1086.25 197.5 1109.45C198.3 1132.65 227.833 1139.45 242.5 1139.95C250.5 1153.95 285.166 1152.78 301.5 1150.45C310.5 1154.45 340.6 1160.05 389 1150.45C449.5 1138.45 461 1133.95 467 1122.45C471.8 1113.25 474 1088.28 474.5 1076.95H450.5C448.1 1104.55 444.5 1112.45 443 1112.95C433 1115.75 423.5 1118.11 420 1118.95C392.8 1130.15 343.666 1133.61 322.5 1133.95C315.5 1133.78 306.9 1128.65 328.5 1109.45C350.099 1090.25 337.5 1088.78 328.5 1090.45C300.9 1101.25 292.333 1121.61 291.5 1130.45H278.5C268.1 1131.25 262.5 1127.78 261 1125.95C258.167 1123.61 257 1114.05 275 1094.45C293 1074.85 282.5 1074.61 275 1076.95C249 1086.15 240.166 1108.78 239 1118.95C215.8 1118.95 221 1099.95 226.5 1090.45C235.333 1078.78 262.7 1056.35 301.5 1059.95C340.3 1063.55 325.333 1052.78 313 1046.95Z" fill="black" stroke="black"/>
<path d="M514 973.946C511.2 914.346 565.5 865.113 593 847.946C619.4 828.746 596.333 830.28 581.5 833.446C545.9 851.846 518.667 885.446 509.5 899.946C502 911.946 485.5 959.446 491 994.946C496.5 1030.45 504 1037.95 520.5 1057.95C533.7 1073.95 532.667 1082.61 530.5 1084.95C518 1090.95 493 1109.95 493 1137.95C493 1172.95 529.5 1168.95 541.5 1168.95C551.1 1168.95 552.167 1170.28 551.5 1170.95C565 1184.45 598 1179.95 605 1176.95C610.6 1174.55 615.667 1174.28 617.5 1174.45C623.5 1181.95 646 1179.95 661 1179.95C721.8 1171.55 756.667 1156.11 766.5 1149.45C773.667 1144.11 787.5 1128.45 785.5 1108.45C783.5 1088.45 777.667 1071.78 775 1065.95C771 1063.28 766.3 1053.25 779.5 1034.45C792.7 1015.65 804 989.28 808 978.446C812.4 963.646 812.167 934.946 811.5 922.446C803.5 903.646 798.5 912.946 797 919.946C796.333 928.946 793.6 952.146 788 972.946C781 998.946 757 1021.95 747.5 1034.45C739.9 1044.45 743 1054.28 745.5 1057.95C750.333 1066.28 757.8 1084.95 760 1095.95C766 1125.95 746.667 1134.11 735 1137.95C695.4 1155.95 647.833 1156.78 629 1154.95C629 1143.45 631.5 1138.95 646 1124.95C657.6 1113.75 645.5 1113.95 638 1115.45C618 1123.45 609.333 1143.45 607.5 1152.45C595 1156.45 600.5 1155.45 581.5 1157.45C566.3 1159.05 562.5 1151.45 562.5 1147.45C561.3 1137.45 578.333 1120.28 587 1112.95C587.667 1111.78 588.2 1108.85 585 1106.45C581.8 1104.05 568.667 1109.78 562.5 1112.95C546.1 1128.55 543.333 1141.11 544 1145.45C543.333 1147.28 538.5 1150.25 524.5 1147.45C510.5 1144.65 517.333 1128.61 522.5 1120.95C539.3 1094.55 566.5 1089.61 578 1090.45C616.5 1093.61 682.4 1097.45 638 1087.45C593.6 1077.45 569.167 1067.28 562.5 1063.45C547.5 1058.45 516.8 1033.55 514 973.946Z" fill="black" stroke="black"/>
<path d="M839 730.946C821.4 737.746 803 739.446 796 739.446L812 761.446C863.2 758.646 913 712.946 931.5 690.446C936.333 684.113 952.4 663.946 978 633.946C1003.6 603.946 1015 630.78 1017.5 647.946C1027.9 688.123 1004.17 780.353 991 821.446C935.8 963.846 826 1025.11 778 1037.95C754 1051.55 765.667 1059.61 774.5 1061.95C947.5 1016.45 1008 853.946 1024.5 798.446C1037.7 754.046 1041 676.613 1041 643.446C1039.17 626.946 1028.5 594.746 1000.5 597.946C965.5 601.946 944 636.946 915 671.446C886 705.946 861 722.446 839 730.946Z" fill="black" stroke="black"/>
<path d="M630.5 168.446C605.3 132.446 564.667 142.446 547.5 151.446C540.5 155.116 536 142.446 553.5 129.446C571 116.446 617.499 118.446 633.499 146.946C646.299 169.746 635.833 169.946 630.5 168.446Z" fill="black" stroke="black"/>
<path d="M278 728.446C288.8 698.046 314.5 645.78 326 623.446C336 617.28 355.1 607.746 351.5 618.946C347.9 630.146 340.667 647.613 337.5 654.946C284.3 745.346 275.667 828.946 278 859.446C296 1033.45 444.833 1063.61 517 1056.95C547.333 1063.61 595.6 1077.35 546 1078.95C496.4 1080.55 460.333 1078.28 448.5 1076.95C283.5 1041.45 256 912.446 255.5 859.446C255 806.446 264.5 766.446 278 728.446Z" fill="black" stroke="black"/>
<ellipse cx="577" cy="216.446" rx="33" ry="44.5" transform="rotate(4.25782 577 216.446)" fill="black"/>
<path d="M150.5 245.946C150.1 226.746 140.833 222.613 136 221.946C125.6 221.946 122.833 234.613 122.5 241.446C124.5 263.446 134.5 270.613 139.5 270.946C143.5 271.279 150.9 265.146 150.5 245.946Z" fill="black" stroke="black"/>
<path d="M271 239.446C259 229.846 243.833 241.613 237 247.946C220.2 267.146 224.667 278.279 229 281.446C237 289.446 252 283.446 264 274.446C271.5 268.821 283 249.046 271 239.446Z" fill="black" stroke="black"/>
<path d="M287 662.946C304.6 662.146 313.667 649.613 316 643.446C317.5 655.613 316.8 680.646 302 683.446C287.2 686.246 257.5 684.613 244.5 683.446V662.946C251.333 663.28 269.4 663.746 287 662.946Z" fill="black"/>
<path d="M272.5 760.946C258.1 756.546 243.167 749.78 237.5 746.946C230.833 753.78 220.5 768.446 232.5 772.446C244.5 776.446 259.833 779.113 266 779.946L272.5 760.946Z" fill="black"/>
<path d="M287 662.946C304.6 662.146 313.667 649.613 316 643.446C317.5 655.613 316.8 680.646 302 683.446C287.2 686.246 257.5 684.613 244.5 683.446V662.946C251.333 663.28 269.4 663.746 287 662.946Z" stroke="black"/>
<path d="M272.5 760.946C258.1 756.546 243.167 749.78 237.5 746.946C230.833 753.78 220.5 768.446 232.5 772.446C244.5 776.446 259.833 779.113 266 779.946L272.5 760.946Z" stroke="black"/>
<path d="M515.236 716.273C534.187 702.359 547.355 681.172 553.384 669.667C553.463 669.517 553.522 669.35 553.559 669.185C557.838 650.054 539.962 661.996 531.5 672.946C520.779 686.82 510.683 694.965 500.77 702.248C500.591 702.379 500.391 702.48 500.179 702.544C485.774 706.909 470.636 704.439 466.5 703.446C459.166 702.613 440.6 701.446 425 703.446C405.499 705.946 373.5 733.446 373.5 759.946C373.5 779.326 386.314 785.141 394.371 785.869C395.522 785.973 396.457 786.924 396.407 788.079L396 797.446L396.5 808.946C397 818.946 406.9 838.146 428.5 836.946C455.5 835.446 467.5 817.446 469 815.446C470.2 813.846 472.167 814.779 473 815.446C492.6 828.646 525.833 827.613 540 825.446C607.415 810.687 628.551 758.732 630.98 734.148C630.994 734.009 630.991 733.868 630.975 733.729C628.938 716.525 621.49 725.973 619 732.446C609 770.446 551.5 804.946 521 802.946C490.5 800.946 484.5 789.946 479.5 788.946C476.164 788.279 474.219 788.493 473.375 788.776C473.116 788.862 472.862 788.967 472.597 789.035C467.974 790.223 457.692 798.063 453 801.946C427.57 824.198 419.112 811.451 418.021 802.132C418.006 802.007 417.982 801.891 417.949 801.769C416.874 797.754 418.315 785.889 432.5 768.946C446.751 751.924 433.773 753.413 425.264 756.354C425.087 756.415 424.915 756.506 424.762 756.615C399.773 774.386 395.503 764.924 396.5 757.946C399.673 739.3 411.799 732.229 419.802 727.561L420 727.446C426 723.946 435.3 719.946 466.5 723.946C497.148 727.875 511.328 720.869 514.821 716.67C514.946 716.521 515.08 716.388 515.236 716.273Z" fill="black" stroke="black"/>
<path d="M604.5 41.4462C547.3 40.6462 497 71.4462 479 86.9462C448.2 98.9462 470.167 74.6128 485 60.9461C489.278 57.3527 495.57 52.8302 503.5 48.0857C371.1 -15.0026 274.333 58.3725 242.5 102.946H214.5C319.3 -40.2539 469.5 -2.66475 531.5 34.0298C552.097 25.4682 577.297 18.6419 604.5 18.4461C660.1 18.0462 705.333 44.2795 721 57.4462C753 79.7795 818.5 163.546 824.5 319.946C830.5 476.346 761.333 546.113 723.5 563.446C693.5 581.446 646.988 576.952 679.5 561.446C712 545.946 725.5 532.613 729 529.446C756.5 512.446 809.4 444.946 801 310.946C792.6 176.946 738.5 102.113 712.5 81.4462C700.333 68.4462 661.7 42.2462 604.5 41.4462Z" fill="black"/>
<path d="M503.5 48.0857C495.57 52.8302 489.278 57.3527 485 60.9461C470.167 74.6128 448.2 98.9462 479 86.9462C497 71.4462 547.3 40.6462 604.5 41.4462C661.7 42.2462 700.333 68.4462 712.5 81.4462C738.5 102.113 792.6 176.946 801 310.946C809.4 444.946 756.5 512.446 729 529.446C725.5 532.613 712 545.946 679.5 561.446C646.988 576.952 693.5 581.446 723.5 563.446C761.333 546.113 830.5 476.346 824.5 319.946C818.5 163.546 753 79.7795 721 57.4462C705.333 44.2795 660.1 18.0461 604.5 18.4461C577.297 18.6419 552.097 25.4682 531.5 34.0298M503.5 48.0857C371.1 -15.0026 274.333 58.3725 242.5 102.946H214.5C319.3 -40.2539 469.5 -2.66475 531.5 34.0298M503.5 48.0857C511.349 43.3895 520.804 38.4757 531.5 34.0298M503.5 48.0857L531.5 34.0298" stroke="black"/>
<path fill-rule="evenodd" clip-rule="evenodd" d="M41.5005 308.446C49.9005 160.046 160 109.946 214 103.446C223 102.779 246.2 102.246 267 105.446C287.8 108.646 299 115.779 302 118.946C305.833 123.779 309.4 132.446 293 128.446C276.6 124.446 259.167 123.779 252.5 123.946C142.9 127.546 92.5 199.779 81 235.446C67.8335 265.075 48.1004 335.156 74.5 378.446C99.8865 420.075 169.956 426.061 221.651 430.478C237.153 431.802 251.003 432.985 261.5 434.946C297.9 441.746 348 440.78 368.5 439.446C446.9 425.046 478.167 405.446 484 397.446C461.2 381.446 478.5 378.113 490 378.446C509.2 384.046 519.333 399.113 522 405.946C525.6 426.746 514.167 423.613 508 419.446C443.2 527.446 343 549.113 301 546.446C297.167 546.78 282.1 544.846 252.5 534.446C224.122 524.476 225.156 497.446 225.6 485.841C225.735 482.315 225.816 480.213 225 480.446C221.5 481.446 200.434 497.316 205.5 526.446C210.737 556.561 236.802 570.675 255.425 580.76C258.137 582.229 260.691 583.612 263 584.946C280 592.78 325.5 602.946 373.5 594.446C403.541 589.126 437.813 581.75 465.549 575.781C483.332 571.953 498.429 568.704 508 566.946C569.309 561.171 570.616 563.29 572.25 565.939C572.455 566.271 572.666 566.612 573 566.946C576 569.946 543 583.946 512.5 589.446C506.145 590.592 500.811 591.521 496.022 592.355C477.824 595.523 467.5 597.321 439 604.446C410.2 611.646 351.333 619.779 325.5 622.946C167.373 609.365 180.527 525.2 183.737 504.66C183.836 504.027 183.925 503.454 184 502.946C186 489.346 193.5 467.28 197 457.946C195 448.746 192.167 451.78 191 454.446C185.8 473.646 171 486.28 164.5 488.446C158 490.613 138.6 491.146 131 485.946C121.5 479.446 116 468.446 113.5 460.446C111.5 454.046 109 440.78 108 434.946C50.4005 420.146 39.6671 344.446 41.5005 308.446ZM383.5 463.446C386.333 468.28 394.7 479.546 405.5 485.946C410.667 484.28 423.3 475.646 432.5 454.446C433.167 452.113 431.6 448.846 420 454.446C415.333 456.113 403 459.546 391 459.946C388.5 459.78 383.5 460.246 383.5 463.446ZM357.5 463.446C360.833 472.28 371.3 492.346 386.5 501.946C327.538 535.802 280.484 524.106 261.68 512.701C260.002 511.683 259.221 509.7 259.708 507.799C266.087 482.888 288.618 467.927 299.5 463.446C315.5 466.246 344.833 464.613 357.5 463.446ZM139.642 441.483C145.064 442.634 153.337 444.39 170.5 446.946C169.3 462.146 158 469.613 152.5 471.446C140.689 471.446 135.916 453.707 134.726 442.979C134.583 441.689 135.732 440.668 137.003 440.929C137.816 441.095 138.684 441.28 139.642 441.483Z" fill="black" stroke="black"/>
<path d="M795.5 737.946C740.3 676.746 717.167 599.78 712.5 568.946L690.5 574.446C698.5 620.046 706.5 641.446 709.5 646.446C717.333 663.946 738.7 706.046 761.5 734.446C784.3 762.846 805.333 793.946 813 805.946C837.4 833.946 835.5 811.613 831.5 796.946C824.3 780.146 804.5 750.613 795.5 737.946Z" fill="black" stroke="black"/>
</svg>
